# Pyramid primitive (square base, apex at top)
# 5 vertices, 6 triangles

# Vertices
v  0.0  1.0  0.0  # apex
v -1.0 -1.0  1.0  # base: front-left
v  1.0 -1.0  1.0  # base: front-right
v  1.0 -1.0 -1.0  # base: back-right
v -1.0 -1.0 -1.0  # base: back-left

# Normals (normalized for sloped faces)
vn  0.0     0.894427  0.447214  # front face normal (normalized)
vn  0.707107 0.707107  0.0      # right face normal (normalized)
vn  0.0     0.894427 -0.447214  # back face normal (normalized)
vn -0.707107 0.707107  0.0      # left face normal (normalized)
vn  0.0    -1.0    0.0           # base normal

# Texture coordinates
vt 0.5 1.0  # apex
vt 0.0 0.0
vt 1.0 0.0
vt 1.0 1.0
vt 0.0 1.0

# Front face
f 1/1/1 2/2/1 3/3/1

# Right face
f 1/1/2 3/3/2 4/4/2

# Back face
f 1/1/3 4/4/3 5/5/3

# Left face
f 1/1/4 5/5/4 2/2/4

# Base (2 triangles)
f 2/2/5 4/4/5 3/3/5
f 2/2/5 5/5/5 4/4/5
