# Sphere primitive (UV sphere, 8 segments, 6 rings)
# Low-poly approximation for testing

# Vertices (organized by rings from top to bottom)
# Top pole
v 0.0 1.0 0.0

# Ring 1 (6 vertices around latitude ~51.8°)
v 0.0 0.866 0.5
v 0.433 0.866 0.25
v 0.433 0.866 -0.25
v 0.0 0.866 -0.5
v -0.433 0.866 -0.25
v -0.433 0.866 0.25

# Ring 2 (6 vertices around equator)
v 0.0 0.5 0.866
v 0.75 0.5 0.433
v 0.75 0.5 -0.433
v 0.0 0.5 -0.866
v -0.75 0.5 -0.433
v -0.75 0.5 0.433

# Ring 3 (6 vertices around latitude ~-51.8°)
v 0.0 -0.866 0.5
v 0.433 -0.866 0.25
v 0.433 -0.866 -0.25
v 0.0 -0.866 -0.5
v -0.433 -0.866 -0.25
v -0.433 -0.866 0.25

# Bottom pole
v 0.0 -1.0 0.0

# Normals (same as positions for sphere)
vn 0.0 1.0 0.0
vn 0.0 0.866 0.5
vn 0.433 0.866 0.25
vn 0.433 0.866 -0.25
vn 0.0 0.866 -0.5
vn -0.433 0.866 -0.25
vn -0.433 0.866 0.25
vn 0.0 0.5 0.866
vn 0.75 0.5 0.433
vn 0.75 0.5 -0.433
vn 0.0 0.5 -0.866
vn -0.75 0.5 -0.433
vn -0.75 0.5 0.433
vn 0.0 -0.866 0.5
vn 0.433 -0.866 0.25
vn 0.433 -0.866 -0.25
vn 0.0 -0.866 -0.5
vn -0.433 -0.866 -0.25
vn -0.433 -0.866 0.25
vn 0.0 -1.0 0.0

# Top cap triangles
f 1//1 2//2 3//3
f 1//1 3//3 4//4
f 1//1 4//4 5//5
f 1//1 5//5 6//6
f 1//1 6//6 7//7
f 1//1 7//7 2//2

# Ring 1 to Ring 2
f 2//2 8//8 3//3
f 8//8 9//9 3//3
f 3//3 9//9 4//4
f 9//9 10//10 4//4
f 4//4 10//10 5//5
f 10//10 11//11 5//5
f 5//5 11//11 6//6
f 11//11 12//12 6//6
f 6//6 12//12 7//7
f 12//12 13//13 7//7
f 7//7 13//13 2//2
f 13//13 8//8 2//2

# Ring 2 to Ring 3
f 8//8 14//14 9//9
f 14//14 15//15 9//9
f 9//9 15//15 10//10
f 15//15 16//16 10//10
f 10//10 16//16 11//11
f 16//16 17//17 11//11
f 11//11 17//17 12//12
f 17//17 18//18 12//12
f 12//12 18//18 13//13
f 18//18 19//19 13//13
f 13//13 19//19 8//8
f 19//19 14//14 8//8

# Bottom cap triangles
f 14//14 20//20 15//15
f 15//15 20//20 16//16
f 16//16 20//20 17//17
f 17//17 20//20 18//18
f 18//18 20//20 19//19
f 19//19 20//20 14//14
